<svg viewBox="0 0 280 80" width="280" height="80" xmlns="http://www.w3.org/2000/svg">
  <!-- Sun box emblem -->
  <g transform="translate(185, 10)">
    <rect width="60" height="60" rx="4" fill="#3B5998"/>
    <!-- Sun rays -->
    <path d="M30 46 L30 18 M23 47 L12 25 M37 47 L48 25 M18 50 L4 35 M42 50 L56 35 M14 54 L0 46 M46 54 L60 46 M12 58 L0 58 M48 58 L60 58" stroke="#F5A623" stroke-width="3" stroke-linecap="round"/>
    <path d="M26 46 L20 20 M34 46 L40 20 M20 48 L8 29 M40 48 L52 29 M16 52 L2 40 M44 52 L58 40" stroke="#F5A623" stroke-width="2.5" stroke-linecap="round"/>
    <!-- White rising sun dome -->
    <path d="M12 60 A18 18 0 0 1 48 60 Z" fill="#FFFFFF"/>
    <!-- Orange horizon line -->
    <rect x="0" y="56" width="60" height="4" fill="#F5A623"/>
  </g>
  <!-- Text in dark navy -->
  <text x="10" y="38" font-family="-apple-system, BlinkMacSystemFont, 'Segoe UI', Roboto, 'Helvetica Neue', Arial, sans-serif" font-size="18" font-weight="800" fill="#002F6C" letter-spacing="1.2">COMMUNITY</text>
  <text x="12" y="58" font-family="-apple-system, BlinkMacSystemFont, 'Segoe UI', Roboto, 'Helvetica Neue', Arial, sans-serif" font-size="13" font-weight="700" fill="#002F6C" letter-spacing="2.2">HEALTH CHOICE</text>
</svg>
